<?xml version="1.0" encoding="iso-8859-1"?>
<!-- Uploaded to: SVG Repo, www.svgrepo.com, Generator: SVG Repo Mixer Tools -->
<svg fill="#000000" height="800px" width="800px" version="1.1" id="Layer_1" xmlns="http://www.w3.org/2000/svg" xmlns:xlink="http://www.w3.org/1999/xlink" 
	 viewBox="0 0 310 310" xml:space="preserve">
<g id="XMLID_834_" >
	<path id="XMLID_835_" d="M 81.7 165.1 h 34 V 305 c 0 2.8 2.2 5 5 5 h 57.6 c 2.8 0 5 -2.2 5 -5 V 165.8 h 39.1 c 2.5 0 4.7 -1.9 5 -4.4 l 5.9 -51.5 c 0.2 -1.4 -0.3 -2.8 -1.2 -3.9 c -0.9 -1.1 -2.3 -1.7 -3.7 -1.7 h -45 V 72 c 0 -9.7 5.2 -14.7 15.6 -14.7 c 1.5 0 29.4 0 29.4 0 c 2.8 0 5 -2.2 5 -5 V 5 c 0 -2.8 -2.2 -5 -5 -5 h -40.5 C 187.5 0 186.8 0 185.9 0 c -7 0 -31.5 1.4 -50.8 19.2 c -21.4 19.7 -18.4 43.3 -17.7 47.4 v 37.8 H 81.7 c -2.8 0 -5 2.2 -5 5 v 50.8 C 76.7 162.9 78.9 165.1 81.7 165.1 z"/>
</g>
</svg>